# xmcd CD database file
#
# Track frame offsets:
#	150
#	16796
#	29347
#	53283
#	74844
#	90115
#	107551
#	121965
#	139341
#	152327
#
# Disc length: 2334 seconds
#
# Revision: 0
# Processed by: cddbd v1.4PL0 Copyright (c) Steve Scherf et al.
# Submitted via: CdAid 2001.05.15.01
#
DISCID=71091c0a
DTITLE=Various Artist - Philly Sound
DYEAR=1900
DGENRE=
TTITLE0=If You Don't Know Me By Now
TTITLE1=When Will I See You Again
TTITLE2=Me And Mrs. Jones
TTITLE3=Close The Door
TTITLE4=Didn't I Blow Your Mind
TTITLE5=Love Won't Let Me Wait
TTITLE6=Do It Anyway You Wanna
TTITLE7=Disco Inferno
TTITLE8=We Are Family
TTITLE9=Your My Latest My Greatest Inspiration
EXTD=
EXTT0=Harold Melvin and the Blue Notes
EXTT1=Three Degrees
EXTT2=Billy Paul
EXTT3=Teddy Pendergrass
EXTT4=Delfonics
EXTT5=Major Harris
EXTT6=Peoples Choice
EXTT7=Tramps
EXTT8=Sister Sledge
EXTT9=Teddy Pendergrass
PLAYORDER=
